<svg width="1380" height="302" viewBox="0 0 1380 302" fill="none" xmlns="http://www.w3.org/2000/svg">
<path d="M0.127132 298.409V65.9091H32.272V93.3203H35.0242C36.9323 89.7976 39.6844 85.7244 43.2805 81.1008C46.8767 76.4773 51.8672 72.4408 58.2521 68.9915C64.6371 65.4688 73.0769 63.7074 83.5717 63.7074C97.2223 63.7074 109.405 67.1567 120.12 74.0554C130.835 80.9541 139.238 90.8984 145.33 103.888C151.494 116.879 154.577 132.511 154.577 150.785C154.577 169.059 151.531 184.728 145.44 197.791C139.348 210.781 130.982 220.799 120.34 227.844C109.699 234.817 97.5526 238.303 83.902 238.303C73.6274 238.303 65.2242 236.578 58.6925 233.129C52.2341 229.679 47.1702 225.643 43.5007 221.019C39.8312 216.396 37.0057 212.286 35.0242 208.69H33.0426V298.409H0.127132ZM32.3821 150.455C32.3821 162.344 34.1068 172.765 37.5561 181.719C41.0054 190.672 45.996 197.681 52.5277 202.745C59.0594 207.736 67.059 210.231 76.5263 210.231C86.3606 210.231 94.5803 207.625 101.185 202.415C107.79 197.131 112.781 189.975 116.157 180.948C119.606 171.921 121.331 161.757 121.331 150.455C121.331 139.299 119.643 129.281 116.267 120.401C112.964 111.521 107.974 104.512 101.295 99.375C94.6903 94.2377 86.434 91.669 76.5263 91.669C66.9856 91.669 58.9126 94.1276 52.3075 99.0447C45.7758 103.962 40.822 110.824 37.446 119.631C34.0701 128.437 32.3821 138.712 32.3821 150.455ZM237.563 238.743C226.848 238.743 217.161 236.761 208.501 232.798C199.841 228.762 192.979 222.927 187.915 215.295C182.924 207.662 180.429 198.305 180.429 187.223C180.429 177.682 182.264 169.83 185.933 163.665C189.603 157.5 194.557 152.62 200.795 149.023C207.033 145.427 214.005 142.712 221.711 140.877C229.417 139.042 237.27 137.648 245.269 136.694C255.397 135.52 263.617 134.566 269.928 133.832C276.24 133.024 280.827 131.74 283.689 129.979C286.551 128.217 287.982 125.355 287.982 121.392V120.621C287.982 111.007 285.267 103.558 279.836 98.2741C274.479 92.99 266.479 90.348 255.837 90.348C244.756 90.348 236.022 92.8066 229.637 97.7237C223.326 102.567 218.959 107.962 216.537 113.906L185.603 106.861C189.273 96.5862 194.63 88.2931 201.676 81.9815C208.794 75.5966 216.977 70.973 226.225 68.1108C235.472 65.1752 245.196 63.7074 255.397 63.7074C262.149 63.7074 269.305 64.5147 276.864 66.1293C284.496 67.6705 291.615 70.5327 298.22 74.7159C304.899 78.8991 310.366 84.8804 314.623 92.6598C318.88 100.366 321.008 110.384 321.008 122.713V235H288.863V211.882H287.542C285.414 216.139 282.221 220.322 277.965 224.432C273.708 228.542 268.24 231.954 261.562 234.67C254.883 237.385 246.884 238.743 237.563 238.743ZM244.719 212.322C253.819 212.322 261.599 210.524 268.057 206.928C274.589 203.332 279.543 198.635 282.918 192.837C286.368 186.966 288.092 180.691 288.092 174.013V152.216C286.918 153.39 284.643 154.491 281.267 155.518C277.965 156.473 274.185 157.317 269.928 158.05C265.672 158.711 261.525 159.335 257.489 159.922C253.452 160.436 250.076 160.876 247.361 161.243C240.976 162.05 235.141 163.408 229.857 165.316C224.647 167.224 220.463 169.976 217.308 173.572C214.225 177.095 212.684 181.792 212.684 187.663C212.684 195.81 215.693 201.974 221.711 206.158C227.729 210.268 235.398 212.322 244.719 212.322ZM394.665 134.602V235H361.749V65.9091H393.344V93.4304H395.435C399.325 84.4768 405.417 77.2846 413.71 71.8537C422.076 66.4228 432.608 63.7074 445.304 63.7074C456.826 63.7074 466.917 66.1293 475.578 70.973C484.238 75.7434 490.953 82.8622 495.723 92.3295C500.493 101.797 502.879 113.503 502.879 127.447V235H469.963V131.41C469.963 119.154 466.771 109.576 460.386 102.678C454.001 95.7055 445.231 92.2195 434.075 92.2195C426.443 92.2195 419.654 93.8707 413.71 97.1733C407.838 100.476 403.178 105.32 399.729 111.705C396.353 118.016 394.665 125.649 394.665 134.602ZM614.818 301.932C601.387 301.932 589.828 300.17 580.141 296.648C570.527 293.125 562.674 288.465 556.583 282.667C550.491 276.869 545.941 270.521 542.932 263.622L571.224 251.953C573.206 255.182 575.848 258.595 579.15 262.191C582.526 265.861 587.076 268.98 592.801 271.548C598.599 274.117 606.048 275.401 615.148 275.401C627.624 275.401 637.936 272.356 646.082 266.264C654.228 260.246 658.301 250.632 658.301 237.422V204.176H656.21C654.228 207.772 651.366 211.772 647.623 216.175C643.954 220.579 638.89 224.395 632.431 227.624C625.973 230.853 617.57 232.468 607.222 232.468C593.865 232.468 581.829 229.349 571.114 223.111C560.472 216.799 552.032 207.515 545.794 195.259C539.63 182.93 536.547 167.775 536.547 149.794C536.547 131.813 539.593 116.402 545.684 103.558C551.849 90.715 560.289 80.8807 571.004 74.0554C581.719 67.1567 593.865 63.7074 607.442 63.7074C617.937 63.7074 626.413 65.4688 632.872 68.9915C639.33 72.4408 644.357 76.4773 647.953 81.1008C651.623 85.7244 654.448 89.7976 656.43 93.3203H658.852V65.9091H691.107V238.743C691.107 253.274 687.731 265.2 680.979 274.521C674.227 283.841 665.09 290.74 653.568 295.217C642.119 299.693 629.202 301.932 614.818 301.932ZM614.487 205.167C623.955 205.167 631.954 202.965 638.486 198.562C645.091 194.085 650.082 187.7 653.458 179.407C656.907 171.04 658.632 161.023 658.632 149.354C658.632 137.978 656.944 127.96 653.568 119.3C650.192 110.64 645.238 103.888 638.706 99.0447C632.175 94.1276 624.102 91.669 614.487 91.669C604.58 91.669 596.323 94.2377 589.718 99.375C583.113 104.439 578.123 111.338 574.747 120.071C571.444 128.804 569.793 138.565 569.793 149.354C569.793 160.436 571.481 170.16 574.857 178.526C578.233 186.893 583.223 193.424 589.828 198.121C596.507 202.818 604.727 205.167 614.487 205.167ZM805.027 238.413C788.368 238.413 774.02 234.853 761.984 227.734C750.021 220.542 740.774 210.451 734.243 197.461C727.784 184.397 724.555 169.096 724.555 151.555C724.555 134.235 727.784 118.97 734.243 105.76C740.774 92.5497 749.875 82.2384 761.544 74.826C773.286 67.4136 787.01 63.7074 802.716 63.7074C812.256 63.7074 821.503 65.2853 830.457 68.441C839.411 71.5968 847.447 76.5507 854.566 83.3026C861.685 90.0544 867.299 98.8246 871.409 109.613C875.519 120.328 877.574 133.355 877.574 148.693V160.362H743.159V135.703H845.319C845.319 127.043 843.557 119.374 840.034 112.695C836.512 105.943 831.558 100.623 825.173 96.7329C818.861 92.8433 811.449 90.8984 802.936 90.8984C793.689 90.8984 785.616 93.1735 778.717 97.7237C771.892 102.201 766.608 108.072 762.865 115.337C759.195 122.53 757.36 130.346 757.36 138.786V158.05C757.36 169.353 759.342 178.967 763.305 186.893C767.342 194.819 772.956 200.874 780.148 205.057C787.34 209.167 795.744 211.222 805.358 211.222C811.596 211.222 817.284 210.341 822.421 208.58C827.558 206.745 831.998 204.029 835.741 200.433C839.484 196.837 842.346 192.397 844.328 187.113L875.482 192.727C872.987 201.901 868.51 209.937 862.052 216.836C855.667 223.661 847.63 228.982 837.943 232.798C828.329 236.541 817.357 238.413 805.027 238.413ZM960.202 238.743C949.487 238.743 939.8 236.761 931.14 232.798C922.48 228.762 915.618 222.927 910.554 215.295C905.563 207.662 903.068 198.305 903.068 187.223C903.068 177.682 904.903 169.83 908.572 163.665C912.242 157.5 917.196 152.62 923.434 149.023C929.672 145.427 936.644 142.712 944.35 140.877C952.056 139.042 959.909 137.648 967.908 136.694C978.036 135.52 986.256 134.566 992.567 133.832C998.879 133.024 1003.47 131.74 1006.33 129.979C1009.19 128.217 1010.62 125.355 1010.62 121.392V120.621C1010.62 111.007 1007.91 103.558 1002.48 98.2741C997.118 92.99 989.118 90.348 978.477 90.348C967.395 90.348 958.661 92.8066 952.276 97.7237C945.965 102.567 941.598 107.962 939.176 113.906L908.242 106.861C911.912 96.5862 917.269 88.2931 924.315 81.9815C931.433 75.5966 939.616 70.973 948.864 68.1108C958.111 65.1752 967.835 63.7074 978.036 63.7074C984.788 63.7074 991.944 64.5147 999.503 66.1293C1007.14 67.6705 1014.25 70.5327 1020.86 74.7159C1027.54 78.8991 1033.01 84.8804 1037.26 92.6598C1041.52 100.366 1043.65 110.384 1043.65 122.713V235H1011.5V211.882H1010.18C1008.05 216.139 1004.86 220.322 1000.6 224.432C996.347 228.542 990.879 231.954 984.201 234.67C977.522 237.385 969.523 238.743 960.202 238.743ZM967.358 212.322C976.458 212.322 984.238 210.524 990.696 206.928C997.228 203.332 1002.18 198.635 1005.56 192.837C1009.01 186.966 1010.73 180.691 1010.73 174.013V152.216C1009.56 153.39 1007.28 154.491 1003.91 155.518C1000.6 156.473 996.824 157.317 992.567 158.05C988.311 158.711 984.164 159.335 980.128 159.922C976.091 160.436 972.715 160.876 970 161.243C963.615 162.05 957.781 163.408 952.496 165.316C947.286 167.224 943.103 169.976 939.947 173.572C936.864 177.095 935.323 181.792 935.323 187.663C935.323 195.81 938.332 201.974 944.35 206.158C950.368 210.268 958.037 212.322 967.358 212.322ZM1106.08 237.092C1100.06 237.092 1094.88 234.963 1090.55 230.707C1086.22 226.377 1084.06 221.166 1084.06 215.075C1084.06 209.057 1086.22 203.919 1090.55 199.663C1094.88 195.333 1100.06 193.168 1106.08 193.168C1112.09 193.168 1117.27 195.333 1121.6 199.663C1125.93 203.919 1128.09 209.057 1128.09 215.075C1128.09 219.111 1127.06 222.817 1125.01 226.193C1123.03 229.496 1120.39 232.138 1117.08 234.119C1113.78 236.101 1110.11 237.092 1106.08 237.092ZM1218.29 238.743C1207.57 238.743 1197.89 236.761 1189.23 232.798C1180.57 228.762 1173.71 222.927 1168.64 215.295C1163.65 207.662 1161.16 198.305 1161.16 187.223C1161.16 177.682 1162.99 169.83 1166.66 163.665C1170.33 157.5 1175.28 152.62 1181.52 149.023C1187.76 145.427 1194.73 142.712 1202.44 140.877C1210.14 139.042 1218 137.648 1226 136.694C1236.12 135.52 1244.34 134.566 1250.65 133.832C1256.97 133.024 1261.55 131.74 1264.42 129.979C1267.28 128.217 1268.71 125.355 1268.71 121.392V120.621C1268.71 111.007 1265.99 103.558 1260.56 98.2741C1255.2 92.99 1247.21 90.348 1236.56 90.348C1225.48 90.348 1216.75 92.8066 1210.36 97.7237C1204.05 102.567 1199.69 107.962 1197.26 113.906L1166.33 106.861C1170 96.5862 1175.36 88.2931 1182.4 81.9815C1189.52 75.5966 1197.7 70.973 1206.95 68.1108C1216.2 65.1752 1225.92 63.7074 1236.12 63.7074C1242.88 63.7074 1250.03 64.5147 1257.59 66.1293C1265.22 67.6705 1272.34 70.5327 1278.95 74.7159C1285.63 78.8991 1291.09 84.8804 1295.35 92.6598C1299.61 100.366 1301.73 110.384 1301.73 122.713V235H1269.59V211.882H1268.27C1266.14 216.139 1262.95 220.322 1258.69 224.432C1254.43 228.542 1248.97 231.954 1242.29 234.67C1235.61 237.385 1227.61 238.743 1218.29 238.743ZM1225.45 212.322C1234.55 212.322 1242.32 210.524 1248.78 206.928C1255.31 203.332 1260.27 198.635 1263.64 192.837C1267.09 186.966 1268.82 180.691 1268.82 174.013V152.216C1267.64 153.39 1265.37 154.491 1261.99 155.518C1258.69 156.473 1254.91 157.317 1250.65 158.05C1246.4 158.711 1242.25 159.335 1238.22 159.922C1234.18 160.436 1230.8 160.876 1228.09 161.243C1221.7 162.05 1215.87 163.408 1210.58 165.316C1205.37 167.224 1201.19 169.976 1198.03 173.572C1194.95 177.095 1193.41 181.792 1193.41 187.663C1193.41 195.81 1196.42 201.974 1202.44 206.158C1208.46 210.268 1216.12 212.322 1225.45 212.322ZM1342.48 235V65.9091H1375.39V235H1342.48ZM1359.1 39.8189C1353.37 39.8189 1348.46 37.9107 1344.35 34.0944C1340.31 30.2048 1338.29 25.5812 1338.29 20.2237C1338.29 14.7928 1340.31 10.1693 1344.35 6.35297C1348.46 2.4633 1353.37 0.518461 1359.1 0.518461C1364.82 0.518461 1369.7 2.4633 1373.74 6.35297C1377.85 10.1693 1379.9 14.7928 1379.9 20.2237C1379.9 25.5812 1377.85 30.2048 1373.74 34.0944C1369.7 37.9107 1364.82 39.8189 1359.1 39.8189Z" fill="white"/>
</svg>
