<svg width="25" height="24" viewBox="0 0 25 24" fill="none" xmlns="http://www.w3.org/2000/svg">
<path d="M16.8336 4.7998C18.2658 4.7998 19.6393 5.36873 20.652 6.38143C21.6647 7.39412 22.2336 8.76764 22.2336 10.1998V13.7998C22.2336 15.232 21.6647 16.6055 20.652 17.6182C19.6393 18.6309 18.2658 19.1998 16.8336 19.1998H7.83359C6.40142 19.1998 5.02791 18.6309 4.01522 17.6182C3.00252 16.6055 2.43359 15.232 2.43359 13.7998V10.1998C2.43359 8.76764 3.00252 7.39412 4.01522 6.38143C5.02791 5.36873 6.40142 4.7998 7.83359 4.7998H16.8336ZM16.8336 6.5998H7.83359C6.90998 6.5998 6.02169 6.9548 5.35246 7.59136C4.68324 8.22792 4.28427 9.09734 4.23809 10.0198L4.23359 10.1998V13.7998C4.23359 14.7234 4.58859 15.6117 5.22514 16.2809C5.8617 16.9502 6.73113 17.3491 7.65359 17.3953L7.83359 17.3998H16.8336C17.7572 17.3998 18.6455 17.0448 19.3147 16.4083C19.9839 15.7717 20.3829 14.9023 20.4291 13.9798L20.4336 13.7998V10.1998C20.4336 9.27619 20.0786 8.3879 19.442 7.71867C18.8055 7.04945 17.9361 6.65049 17.0136 6.6043L16.8336 6.5998ZM10.5336 9.2998V11.0998H12.3336V12.8998H10.5327L10.5336 14.6998H8.73359L8.73269 12.8998H6.93359V11.0998H8.73359V9.2998H10.5336ZM17.7336 12.8998V14.6998H15.9336V12.8998H17.7336ZM15.9336 9.2998V11.0998H14.1336V9.2998H15.9336Z" fill="#1E96FF"/>
</svg>
