<svg width="24" height="24" viewBox="0 0 24 24" fill="none" xmlns="http://www.w3.org/2000/svg">
<path d="M9.74974 6.60078C8.19822 6.60078 6.71025 7.21712 5.61316 8.31421C4.51608 9.41129 3.89974 10.8993 3.89974 12.4508C3.89974 14.0023 4.51608 15.4903 5.61316 16.5874C6.71025 17.6844 8.19822 18.3008 9.74974 18.3008H16.0497C16.6178 18.3002 17.1794 18.1802 17.698 17.9485C18.2167 17.7167 18.6808 17.3785 19.0602 16.9557C19.4396 16.5329 19.7258 16.035 19.9002 15.4944C20.0746 14.9538 20.1334 14.3825 20.0726 13.8177C20.0119 13.2529 19.833 12.7072 19.5476 12.216C19.2622 11.7249 18.8767 11.2992 18.416 10.9668C17.9554 10.6343 17.43 10.4025 16.874 10.2864C16.3179 10.1702 15.7436 10.1723 15.1884 10.2926C14.7558 9.20335 14.0061 8.26911 13.0364 7.61088C12.0667 6.95265 10.9217 6.60075 9.74974 6.60078ZM16.0497 20.1008H9.74974C8.41795 20.1005 7.10931 19.7525 5.95328 19.0912C4.79724 18.43 3.83386 17.4784 3.15842 16.3306C2.48298 15.1828 2.11889 13.8786 2.10217 12.5469C2.08544 11.2152 2.41665 9.9022 3.06305 8.7378C3.70944 7.57339 4.64862 6.59791 5.78768 5.90784C6.92674 5.21776 8.22622 4.83701 9.55758 4.80324C10.8889 4.76947 12.2061 5.08385 13.3786 5.71529C14.5512 6.34673 15.5386 7.27335 16.2432 8.40348C17.7802 8.44999 19.237 9.09973 20.2985 10.2121C21.36 11.3245 21.9409 12.8101 21.9155 14.3476C21.8901 15.885 21.2604 17.3506 20.1626 18.4272C19.0649 19.5039 17.5874 20.1051 16.0497 20.1008Z" fill="#F24149"/>
</svg>
